STARTFONT 2.1
FONT foobar
SIZE 39 75 75
FONTBOUNDINGBOX 36 16 0 -4
STARTPROPERTIES 5
FACE_NAME "Canterbury Regular"
FAMILY_NAME "Canterbury"
WEIGHT_NAME "Regular"
FONT_DESCENT -147
FONT_ASCENT 695
ENDPROPERTIES
CHARS 98
STARTCHAR space
ENCODING 32
SWIDTH 13440 0
DWIDTH 14 0
BBX 1 1 0 0
BITMAP
00
ENDCHAR
STARTCHAR exclam
ENCODING 33
SWIDTH 11520 0
DWIDTH 12 0
BBX 7 14 0 0
BITMAP
18
7C
FE
7C
3C
38
18
18
18
10
10
38
7E
18
ENDCHAR
STARTCHAR quotedbl
ENCODING 34
SWIDTH 13440 0
DWIDTH 14 0
BBX 9 6 0 9
BITMAP
E380
C300
C300
C300
4300
4300
ENDCHAR
STARTCHAR numbersign
ENCODING 35
SWIDTH 24000 0
DWIDTH 25 0
BBX 20 13 0 1
BITMAP
018700
038600
030600
030600
7FFFF0
7FFFE0
060C00
FFFFE0
FFFFE0
0E1800
0C1800
0C1800
1C3800
ENDCHAR
STARTCHAR dollar
ENCODING 36
SWIDTH 19200 0
DWIDTH 20 0
BBX 19 19 0 -2
BITMAP
006000
006000
00F000
07FF00
1FFF80
386200
386000
3E6000
1FF000
07FE00
007F80
006FC0
0061E0
0060E0
0FF0C0
3FFF80
C07E00
006000
006000
ENDCHAR
STARTCHAR percent
ENCODING 37
SWIDTH 20160 0
DWIDTH 21 0
BBX 19 15 0 0
BITMAP
1C0100
3F0180
638200
C18400
E18800
711000
3E3000
006000
00CF80
0193C0
0330E0
063060
0C3840
081C40
300780
ENDCHAR
STARTCHAR ampersand
ENCODING 38
SWIDTH 28800 0
DWIDTH 30 0
BBX 28 16 0 0
BITMAP
00038000
003FE000
01C1E000
0780E000
03C0C000
01E18000
00F60000
007C0000
01FE0200
0E1F0FF0
300FF1C0
F807C000
7C03E000
1E1DF820
0FE0FFE0
06003F80
ENDCHAR
STARTCHAR quotesingle
ENCODING 39
SWIDTH 8640 0
DWIDTH 9 0
BBX 3 6 0 9
BITMAP
E0
E0
C0
C0
40
40
ENDCHAR
STARTCHAR parenleft
ENCODING 40
SWIDTH 12480 0
DWIDTH 13 0
BBX 12 20 0 -4
BITMAP
0030
00C0
0300
0600
0C00
1800
3800
7000
7000
7000
F000
F000
F000
7800
7C00
3C00
1F00
0F80
07E0
0180
ENDCHAR
STARTCHAR parenright
ENCODING 41
SWIDTH 12480 0
DWIDTH 13 0
BBX 11 20 0 -4
BITMAP
3000
7C00
BE00
1F00
0780
03C0
03C0
01E0
01E0
01E0
01E0
01C0
01C0
0380
0300
0600
0C00
1800
6000
8000
ENDCHAR
STARTCHAR asterisk
ENCODING 42
SWIDTH 15360 0
DWIDTH 16 0
BBX 12 7 0 9
BITMAP
0600
0F00
E660
FFF0
0E00
3B80
39C0
ENDCHAR
STARTCHAR plus
ENCODING 43
SWIDTH 20160 0
DWIDTH 21 0
BBX 19 10 0 3
BITMAP
00C000
00C000
00C000
00C000
FFFFE0
FFFFE0
00C000
00C000
00C000
00C000
ENDCHAR
STARTCHAR comma
ENCODING 44
SWIDTH 9600 0
DWIDTH 10 0
BBX 6 5 0 -2
BITMAP
30
FC
38
70
C0
ENDCHAR
STARTCHAR hyphen
ENCODING 45
SWIDTH 8640 0
DWIDTH 9 0
BBX 9 2 0 5
BITMAP
3F80
FF00
ENDCHAR
STARTCHAR period
ENCODING 46
SWIDTH 9600 0
DWIDTH 10 0
BBX 6 3 0 0
BITMAP
30
FC
30
ENDCHAR
STARTCHAR slash
ENCODING 47
SWIDTH 19200 0
DWIDTH 20 0
BBX 20 20 0 -3
BITMAP
000030
000060
0000C0
000180
000300
000600
000C00
001800
003000
006000
00E000
01C000
038000
030000
060000
0C0000
180000
300000
600000
C00000
ENDCHAR
STARTCHAR zero
ENCODING 48
SWIDTH 19200 0
DWIDTH 20 0
BBX 18 15 0 0
BITMAP
00E000
03FC00
0FFE00
183F00
300F80
6007C0
E003C0
E001C0
F001C0
F00180
780180
3E0300
1F8400
07F800
01E000
ENDCHAR
STARTCHAR one
ENCODING 49
SWIDTH 19200 0
DWIDTH 20 0
BBX 12 15 0 0
BITMAP
0C00
3E00
DF00
0F00
0F00
0F00
0F00
0F00
0F00
0F00
0F00
0F00
1F20
3FD0
0300
ENDCHAR
STARTCHAR two
ENCODING 50
SWIDTH 19200 0
DWIDTH 20 0
BBX 18 15 0 0
BITMAP
01C000
07F000
1F8E00
7C0F80
100F80
000F80
001F00
003E00
00F800
01C000
070000
180000
27FF00
7FFFC0
C00E00
ENDCHAR
STARTCHAR three
ENCODING 51
SWIDTH 19200 0
DWIDTH 20 0
BBX 18 15 0 0
BITMAP
01C000
07FC00
3F0F80
1C0F80
000F00
001E00
007800
07FC00
003F80
000FC0
2007C0
7C07C0
BF0780
0FEE00
03F000
ENDCHAR
STARTCHAR four
ENCODING 52
SWIDTH 19200 0
DWIDTH 20 0
BBX 18 15 0 0
BITMAP
003000
007800
01FC00
023C00
0C3C00
103C00
203C00
403C00
FFFFC0
7FFFC0
003C00
003C00
007C80
00FF00
001C00
ENDCHAR
STARTCHAR five
ENCODING 53
SWIDTH 19200 0
DWIDTH 20 0
BBX 17 14 0 0
BITMAP
0FFE00
1FFC00
100000
100000
207000
23FC00
3C7F00
400F00
000780
000700
300700
FE0E00
3FF800
03C000
ENDCHAR
STARTCHAR six
ENCODING 54
SWIDTH 19200 0
DWIDTH 20 0
BBX 18 15 0 0
BITMAP
007000
01FE00
067F80
0C0600
380000
381C00
707F00
73BF80
FC07C0
F803C0
780180
7E0300
1F0200
0FFC00
01C000
ENDCHAR
STARTCHAR seven
ENCODING 55
SWIDTH 19200 0
DWIDTH 20 0
BBX 18 14 0 0
BITMAP
1FFFC0
3FFF00
200600
400C00
803000
007000
00E000
01C000
03C000
078000
0F8000
0F8000
1F0000
1C0000
ENDCHAR
STARTCHAR eight
ENCODING 56
SWIDTH 19200 0
DWIDTH 20 0
BBX 17 15 0 0
BITMAP
07F000
0FFE00
3FFE00
600F00
E00600
F80800
FFFC00
3FFF00
31FF00
600780
C00100
E00100
F80600
7FF800
1FC000
ENDCHAR
STARTCHAR nine
ENCODING 57
SWIDTH 19200 0
DWIDTH 20 0
BBX 18 15 0 0
BITMAP
00E000
07FC00
19FE00
303F00
700F80
7007C0
F803C0
7E0FC0
3FF380
0E0380
000700
0C0600
3F8C00
0FF000
01C000
ENDCHAR
STARTCHAR colon
ENCODING 58
SWIDTH 9600 0
DWIDTH 10 0
BBX 6 10 0 0
BITMAP
30
F8
74
00
00
00
00
70
FC
30
ENDCHAR
STARTCHAR semicolon
ENCODING 59
SWIDTH 9600 0
DWIDTH 10 0
BBX 6 12 0 -2
BITMAP
30
F8
74
00
00
00
20
78
FC
38
60
C0
ENDCHAR
STARTCHAR less
ENCODING 60
SWIDTH 20160 0
DWIDTH 21 0
BBX 18 12 0 2
BITMAP
0000C0
0007C0
007FC0
03FC00
3FE000
FE0000
FE0000
3FE000
03FC00
007FC0
0007C0
0000C0
ENDCHAR
STARTCHAR equal
ENCODING 61
SWIDTH 20160 0
DWIDTH 21 0
BBX 19 6 0 5
BITMAP
FFFFE0
FFFFE0
000000
000000
FFFFE0
FFFFE0
ENDCHAR
STARTCHAR greater
ENCODING 62
SWIDTH 20160 0
DWIDTH 21 0
BBX 18 12 0 2
BITMAP
C00000
FC0000
7F8000
0FF800
00FF80
000FC0
000FC0
00FF80
0FF800
7F8000
FC0000
C00000
ENDCHAR
STARTCHAR question
ENCODING 63
SWIDTH 12480 0
DWIDTH 13 0
BBX 11 14 0 0
BITMAP
1F00
3FC0
C3E0
01E0
03C0
0380
0600
0400
0800
0800
0000
1C00
7E00
1800
ENDCHAR
STARTCHAR at
ENCODING 64
SWIDTH 26880 0
DWIDTH 28 0
BBX 26 15 0 0
BITMAP
007FC000
07803800
1C000600
30000180
60FFE080
C041C0C0
C021C0C0
C03DC0C0
C043C080
C0C1C300
60E3C600
30FDF980
1C60C600
07803C00
00FFC000
ENDCHAR
STARTCHAR A
ENCODING 65
SWIDTH 24960 0
DWIDTH 26 0
BBX 25 16 0 0
BITMAP
03FE0300
1FFFCC00
3C03F800
60727800
C1FC7800
C2107800
C0207800
40407800
21807800
1BFFF800
07FFF800
08007C00
38003C00
7F81FD00
C3FE3E80
E0701800
ENDCHAR
STARTCHAR B
ENCODING 66
SWIDTH 28800 0
DWIDTH 30 0
BBX 29 18 0 -2
BITMAP
1FC38F00
7FFC7F80
4033C7C0
80E781F0
01E780F8
01C7A040
1FC7A3C0
7FC7AFF8
83C7B1F0
01C7B1F0
0FC72EF0
33CF3FF0
019C20F0
03EFA0E0
0FFFFF00
1000C000
60000000
70000000
ENDCHAR
STARTCHAR C
ENCODING 67
SWIDTH 24000 0
DWIDTH 25 0
BBX 24 16 0 0
BITMAP
00038000
008FFF00
0735F800
18E40000
31E40000
71E40000
E1E40000
E1E40000
E1E40000
F1C40000
F9840000
7E040000
3E040300
1FC41C00
07FFF000
00FF8000
ENDCHAR
STARTCHAR D
ENCODING 68
SWIDTH 28800 0
DWIDTH 30 0
BBX 28 16 0 -1
BITMAP
40000000
7FFFFC00
1FFFFF80
003687C0
00E481E0
01C481E0
01C480F0
03C4C3F0
1FC4BCF0
7FC49CF0
87C8E3F0
038880F0
073080F0
0CFFFFE0
37FFFF00
78000000
ENDCHAR
STARTCHAR E
ENCODING 69
SWIDTH 24960 0
DWIDTH 26 0
BBX 24 16 0 0
BITMAP
00038000
018FFF00
0635FC00
19E40800
31E43000
71E4FE00
E1E7F800
E1E40000
F1E40000
F1C40000
F9040000
7E040000
3F040100
1FE41E00
07FFF800
00FFC000
ENDCHAR
STARTCHAR F
ENCODING 70
SWIDTH 24960 0
DWIDTH 26 0
BBX 29 18 0 -2
BITMAP
00000C18
00003FF0
0000F7C0
001F7000
001C7000
01FC7FC0
07FC7F80
1C1C7000
001C7000
001C7000
001C7000
001C7000
001C7000
001CF000
001DE000
003B8000
7FAC0000
87D00000
ENDCHAR
STARTCHAR G
ENCODING 71
SWIDTH 26880 0
DWIDTH 28 0
BBX 26 16 0 0
BITMAP
00070000
001FFC80
006FFF00
01E03800
07E02000
1DE1FF00
39E7BF80
71FA03C0
F1E201C0
F1E203C0
F1E3FFC0
F9C20180
7F03FF00
3E020400
1FC20800
03FFF000
ENDCHAR
STARTCHAR H
ENCODING 72
SWIDTH 28800 0
DWIDTH 30 0
BBX 29 19 0 -3
BITMAP
00030C00
3FFC7000
67F38000
80E78000
01C787C0
01C799E0
03C7E0F0
1FC78078
67C7FFF8
01C78078
01C78078
0FC7FFF8
11CC0070
01B00CF0
03FFF1C0
0C03E700
30000C00
30001000
20000E00
ENDCHAR
STARTCHAR I
ENCODING 73
SWIDTH 20160 0
DWIDTH 21 0
BBX 22 16 0 0
BITMAP
07FF1C
19F460
201CE0
0038E0
0039E0
0079E0
03F8E0
0FF8F0
1078F0
003CF0
003CF0
003C70
007870
1F8060
3FF0C0
C0FF00
ENDCHAR
STARTCHAR J
ENCODING 74
SWIDTH 22080 0
DWIDTH 23 0
BBX 24 19 0 -3
BITMAP
07E00300
3FFFFE00
403FD800
78033000
780E7000
001C7000
001CF000
0FFCF000
10FCF000
003CF000
0FFCF000
10FCF000
003CF000
001CE000
000CC000
00098000
1C330000
7FFC0000
87C00000
ENDCHAR
STARTCHAR K
ENCODING 75
SWIDTH 27840 0
DWIDTH 29 0
BBX 29 17 0 -1
BITMAP
1F864000
7FFC8000
C0190000
80790E00
00723F00
00F2C7C0
1FF30300
21F20C00
00F27000
0FF3F000
13F23C00
01E40E00
03C80700
079F9F80
0CFFFBC8
3B07E1F0
4000C0C0
ENDCHAR
STARTCHAR L
ENCODING 76
SWIDTH 24000 0
DWIDTH 25 0
BBX 25 17 0 -1
BITMAP
3F0C7800
7FF3C000
80278000
80E78000
00E78000
01E78000
01E78000
1FE38000
21E38000
00E70000
0FE70000
01CC0000
00980000
017FF080
03FFFF00
0E001C00
30000000
ENDCHAR
STARTCHAR M
ENCODING 77
SWIDTH 33600 0
DWIDTH 35 0
BBX 35 18 0 -2
BITMAP
0000E03800
0007F0FEC0
0038F71F80
00F0790F00
0190790F00
03A0790F00
07A0790F00
07A7FFCF00
1F9FFF8F00
7FA0790F00
83A0790F00
01A0790F00
01A0790F00
01A0F9CF20
0321FE0FC0
3FE0380300
FF80000000
8000000000
ENDCHAR
STARTCHAR N
ENCODING 78
SWIDTH 30720 0
DWIDTH 32 0
BBX 36 18 0 -2
BITMAP
000001E000
00001FFC00
0001FFFF00
000F203F80
000F2007C0
03EF2003C0
043F300FC0
001F2FF1C0
03EF3FF980
041F3FF380
03FF301300
0007201E00
0007203800
0007407010
0006407FE0
1FFC80FFC0
7FFF01C000
80FC010000
ENDCHAR
STARTCHAR O
ENCODING 79
SWIDTH 28800 0
DWIDTH 30 0
BBX 28 16 0 0
BITMAP
0003C000
001FFC00
00E43F80
07E407C0
39E401E0
71E603F0
61E5FCF0
E1E400F0
E1E5FCF0
E1E603E0
F1C401C0
79840380
7E040600
3F041C00
0FFFE000
01FF0000
ENDCHAR
STARTCHAR P
ENCODING 80
SWIDTH 27840 0
DWIDTH 29 0
BBX 28 19 0 -3
BITMAP
0FE11C00
31F17F00
00FB9FC0
007D03E0
007901F0
03F900F0
0C7900F0
3C79FFF0
07F900F0
01F9FFF0
00F981F0
007900F0
007900F0
07F9F8E0
1FF9FFC0
60790F00
80790000
00790000
007F0000
ENDCHAR
STARTCHAR Q
ENCODING 81
SWIDTH 29760 0
DWIDTH 31 0
BBX 30 17 0 -1
BITMAP
0003E000
001FFE00
00FC3F80
07E403E0
3DE401F0
79E301F8
71E4FE78
E1E40078
E1E4FE78
F1E303F0
F1E400E0
F98401C0
7E040300
3F841F00
0FFFFFC8
03FF83FC
00000060
ENDCHAR
STARTCHAR R
ENCODING 82
SWIDTH 27840 0
DWIDTH 29 0
BBX 30 16 0 0
BITMAP
1FC03000
3FE1F800
C1F67C00
00FA3F00
00F21F80
03F20600
0CF20800
78F23000
1EF3FC00
07F21F00
01F20F00
00F20780
00F203C0
0FFF13C8
7FFFE1F4
800380C0
ENDCHAR
STARTCHAR S
ENCODING 83
SWIDTH 28800 0
DWIDTH 30 0
BBX 29 17 0 -1
BITMAP
001C0800
007FEC00
01FFF000
03FFE000
0700C000
06007F00
1FFFFFE0
73FE01F0
7005FC38
3FFFFF38
0FFFFF38
00200630
3FC00860
7FFFF1C0
E01FFF00
403FF800
3FC04000
ENDCHAR
STARTCHAR T
ENCODING 84
SWIDTH 25920 0
DWIDTH 27 0
BBX 28 16 0 0
BITMAP
03FF0030
1FFFFFE0
306FFF80
418F2000
870F2000
0E0F2000
1C0F2000
1C0F2000
3C0F2000
3C0E2000
1E0E2030
1F1C2020
0FB020C0
07F02780
01FFFE00
003FF000
ENDCHAR
STARTCHAR U
ENCODING 85
SWIDTH 28800 0
DWIDTH 30 0
BBX 30 16 0 0
BITMAP
3F818200
7FFE87CC
C0348BF0
81DCB1E0
871C81E0
0E3C81E0
1C3CC1E0
3C3CBFE0
383C81E0
783CFFE0
3C3C81E0
3C3081E0
3E4081E0
1FC087E0
07FFF9FC
00FF80E0
ENDCHAR
STARTCHAR V
ENCODING 86
SWIDTH 24960 0
DWIDTH 26 0
BBX 25 17 0 -1
BITMAP
3E000400
7F807E00
87C39F00
83FC0F00
03E00F80
01E00780
01E00F80
01FFF700
1CE00F00
7FFFCE00
03C03C00
01C03800
01803000
01004000
027F8000
07FC0000
0C000000
ENDCHAR
STARTCHAR W
ENCODING 87
SWIDTH 33600 0
DWIDTH 35 0
BBX 34 16 0 0
BITMAP
3C00600200
FF01F01F00
8F86F8EF80
87F87F07C0
03C03C03C0
03C03E03C0
03E03E03C0
01FFDFFFC0
3DC01E03C0
CFC03C0380
03FF3FF700
03C0F80E00
0300601800
07009FF000
0E3FFFC000
1DCF030000
ENDCHAR
STARTCHAR X
ENCODING 88
SWIDTH 22080 0
DWIDTH 23 0
BBX 23 16 0 0
BITMAP
1F0020
7FC07C
83E0FE
01F104
00F100
007A00
007C00
07FFFC
0FFFF8
001F00
002F80
004780
0083C0
7F81E2
7F00FC
060070
ENDCHAR
STARTCHAR Y
ENCODING 89
SWIDTH 26880 0
DWIDTH 28 0
BBX 27 19 0 -3
BITMAP
3F000000
47C1FC00
03DFFF00
03E81F80
01C807C0
FFCC07C0
07CBFBE0
03C801E0
7BCBFBC0
07CC07C0
03C80380
03C80700
03C83E00
3FFFF000
40000000
80010000
C07FF000
7FF87000
1FC07000
ENDCHAR
STARTCHAR Z
ENCODING 90
SWIDTH 20160 0
DWIDTH 21 0
BBX 21 16 0 0
BITMAP
060030
1FFFE0
27FCC0
400180
000700
000E00
003C00
1FFFF0
00F800
3FFFC0
03E000
078000
0E0010
19FF18
3FFFE0
E00380
ENDCHAR
STARTCHAR bracketleft
ENCODING 91
SWIDTH 20160 0
DWIDTH 21 0
BBX 7 19 0 -4
BITMAP
FE
FE
E0
E0
E0
E0
E0
E0
E0
E0
E0
E0
E0
E0
E0
E0
E0
FE
FE
ENDCHAR
STARTCHAR backslash
ENCODING 92
SWIDTH 9600 0
DWIDTH 10 0
BBX 10 16 0 0
BITMAP
0780
3FC0
7C00
7C00
7C00
7C00
7C00
7C00
7C00
7C00
7C00
7C00
7C00
7C00
FF80
0C00
ENDCHAR
STARTCHAR bracketright
ENCODING 93
SWIDTH 20160 0
DWIDTH 21 0
BBX 8 19 0 -4
BITMAP
FF00
FF00
0F00
0F00
0F00
0F00
0F00
0F00
0F00
0F00
0F00
0F00
0F00
0F00
0F00
0F00
0F00
FF00
FF00
ENDCHAR
STARTCHAR asciicircum
ENCODING 94
SWIDTH 20160 0
DWIDTH 21 0
BBX 18 7 0 8
BITMAP
03F000
07F800
0F3C00
1E1E00
3C0F00
780780
F003C0
ENDCHAR
STARTCHAR underscore
ENCODING 95
SWIDTH 20160 0
DWIDTH 21 0
BBX 21 2 0 -3
BITMAP
FFFFF8
FFFFF8
ENDCHAR
STARTCHAR grave
ENCODING 96
SWIDTH 20160 0
DWIDTH 21 0
BBX 8 3 0 13
BITMAP
F800
7C00
0F00
ENDCHAR
STARTCHAR a
ENCODING 97
SWIDTH 16320 0
DWIDTH 17 0
BBX 16 11 0 0
BITMAP
078400
7FFC00
207800
107800
0E7800
31F800
707800
707800
F8F800
7F7F00
383800
ENDCHAR
STARTCHAR b
ENCODING 98
SWIDTH 16320 0
DWIDTH 17 0
BBX 14 16 0 0
BITMAP
8700
7C00
3C00
3C00
3C10
3C78
3DFC
3E3C
3C3C
3C3C
3C3C
3C3C
3C3C
7C3C
9FF0
0180
ENDCHAR
STARTCHAR c
ENCODING 99
SWIDTH 12480 0
DWIDTH 13 0
BBX 12 11 0 0
BITMAP
0300
1FE0
FCC0
3C00
3C00
3C00
3C00
3C00
3C00
7FF0
0700
ENDCHAR
STARTCHAR d
ENCODING 100
SWIDTH 16320 0
DWIDTH 17 0
BBX 14 15 0 0
BITMAP
8000
E000
FC00
3F00
0FE4
79F8
7878
7878
7878
7878
7878
7878
FC78
7FF0
0380
ENDCHAR
STARTCHAR e
ENCODING 101
SWIDTH 14400 0
DWIDTH 15 0
BBX 13 11 0 0
BITMAP
0180
1FE0
FCF0
3C78
3C60
3D80
3E00
3C00
3C00
7FB8
0740
ENDCHAR
STARTCHAR f
ENCODING 102
SWIDTH 9600 0
DWIDTH 10 0
BBX 10 16 0 0
BITMAP
07C0
1FC0
3C80
3C00
3C00
FF80
FF80
3C00
3C00
3C00
3C00
3C00
3C00
3C00
7FC0
0E00
ENDCHAR
STARTCHAR g
ENCODING 103
SWIDTH 17280 0
DWIDTH 18 0
BBX 17 14 0 -3
BITMAP
03C000
7FFF80
787B80
787800
787800
787800
787800
787800
7CFC00
7F3C00
0E3F00
080F00
1FF300
FFFC00
ENDCHAR
STARTCHAR h
ENCODING 104
SWIDTH 16320 0
DWIDTH 17 0
BBX 14 19 0 -3
BITMAP
8700
7C00
3C00
3C00
3C10
3C7C
3DBC
3E3C
3C3C
3C3C
3C3C
3C3C
3C3C
3C3C
FE3C
3838
0070
0180
1A00
ENDCHAR
STARTCHAR i
ENCODING 105
SWIDTH 9600 0
DWIDTH 10 0
BBX 9 16 0 0
BITMAP
0780
0600
0800
0000
1000
7C00
BE00
3C00
3C00
3C00
3C00
3C00
3C00
7C00
7F80
0C00
ENDCHAR
STARTCHAR j
ENCODING 106
SWIDTH 8640 0
DWIDTH 9 0
BBX 9 19 0 -3
BITMAP
0380
0700
0400
0000
0800
3E00
DF80
1E00
1E00
1E00
1E00
1E00
1E00
1E00
0E00
0E00
0C00
1800
6000
ENDCHAR
STARTCHAR k
ENCODING 107
SWIDTH 16320 0
DWIDTH 17 0
BBX 17 16 0 0
BITMAP
870000
7C0000
3C0000
3C0000
3C2000
3C7800
3DFE00
3E1800
3C2000
3C7000
3DF800
3E7C00
3C3C00
7C3C00
FFDF80
0C1800
ENDCHAR
STARTCHAR l
ENCODING 108
SWIDTH 8640 0
DWIDTH 9 0
BBX 9 16 0 0
BITMAP
8700
7C00
3C00
3C00
3C00
3C00
3C00
3C00
3C00
3C00
3C00
3C00
3C00
7C00
FF80
0C00
ENDCHAR
STARTCHAR m
ENCODING 109
SWIDTH 25920 0
DWIDTH 27 0
BBX 26 11 0 0
BITMAP
1C180C00
7E7E7EC0
9F9F8F00
1E1E0F00
1E1E0F00
1E1E0F00
1E1E0F00
1E1E0F00
1E1E0F00
7F3F8FC0
0C0E0700
ENDCHAR
STARTCHAR n
ENCODING 110
SWIDTH 17280 0
DWIDTH 18 0
BBX 18 11 0 0
BITMAP
1C1800
7E7F80
9F9F00
1E1E00
1E1E00
1E1E00
1E1E00
1E1E00
1E1E00
7F0FC0
0C0600
ENDCHAR
STARTCHAR o
ENCODING 111
SWIDTH 15360 0
DWIDTH 16 0
BBX 13 11 0 0
BITMAP
0300
3FF8
7878
7878
7878
7878
7878
7878
7878
FFF0
0380
ENDCHAR
STARTCHAR p
ENCODING 112
SWIDTH 16320 0
DWIDTH 17 0
BBX 16 15 0 -3
BITMAP
181800
7C7C00
1EFE00
1F1F00
1E1F00
1E1F00
1E1F00
1E1F00
1E1F00
FE1F00
1FF800
1E6000
1E0000
3E0000
418000
ENDCHAR
STARTCHAR q
ENCODING 113
SWIDTH 16320 0
DWIDTH 17 0
BBX 14 14 0 -3
BITMAP
0600
7FE0
F1FC
F0F0
F0F0
F0F0
F0F0
F0F0
F0F0
FBF0
3CF0
00F0
00F8
0384
ENDCHAR
STARTCHAR r
ENCODING 114
SWIDTH 12480 0
DWIDTH 13 0
BBX 14 11 0 0
BITMAP
1830
7EF8
9F3C
1E00
1E00
1E00
1E00
1E00
1E00
7FE0
0700
ENDCHAR
STARTCHAR s
ENCODING 115
SWIDTH 16320 0
DWIDTH 17 0
BBX 16 13 0 0
BITMAP
000300
000300
03FE00
1FFC00
3C1800
3C2000
3C7C00
3FFE00
061E00
041E00
181E00
3FFC00
C0E000
ENDCHAR
STARTCHAR t
ENCODING 116
SWIDTH 9600 0
DWIDTH 10 0
BBX 10 14 0 0
BITMAP
0400
0C00
1C00
3F80
FF80
3C00
3C00
3C00
3C00
3C00
3C00
3C00
7FC0
0E00
ENDCHAR
STARTCHAR u
ENCODING 117
SWIDTH 17280 0
DWIDTH 18 0
BBX 17 11 0 0
BITMAP
181C00
7E7F00
BC1E00
3C1E00
3C1E00
3C1E00
3C1E00
3C1E00
3C7E00
7F9F80
0C0C00
ENDCHAR
STARTCHAR v
ENCODING 118
SWIDTH 16320 0
DWIDTH 17 0
BBX 14 14 0 0
BITMAP
1800
6000
E000
F838
7DFC
3E3C
3C3C
3C3C
3C3C
3C3C
3C3C
3E3C
5FF0
0180
ENDCHAR
STARTCHAR w
ENCODING 119
SWIDTH 24000 0
DWIDTH 25 0
BBX 23 15 0 0
BITMAP
100000
E00000
C00000
E02010
78787C
3DFDFE
3E3E1E
3C3C1E
3C3C1E
3C3C1E
3C3C1E
3C3C1E
3C3E1E
DFFFF8
0381C0
ENDCHAR
STARTCHAR x
ENCODING 120
SWIDTH 16320 0
DWIDTH 17 0
BBX 17 11 0 0
BITMAP
180C00
7E1F00
9F2600
07C000
03C000
01E000
01F000
02F800
647C00
F83F80
300C00
ENDCHAR
STARTCHAR y
ENCODING 121
SWIDTH 15360 0
DWIDTH 16 0
BBX 15 15 0 -4
BITMAP
1C08
7E7C
9F9E
1E1E
1E1E
1E1E
1E3C
1E30
1EC0
1F00
3800
4000
8000
C180
7E00
ENDCHAR
STARTCHAR z
ENCODING 122
SWIDTH 10560 0
DWIDTH 11 0
BBX 11 14 0 -3
BITMAP
0C00
7FC0
8700
0400
0F80
3FC0
43E0
01E0
03C0
0780
0C00
3000
2000
1C00
ENDCHAR
STARTCHAR braceleft
ENCODING 123
SWIDTH 20160 0
DWIDTH 21 0
BBX 11 20 0 -4
BITMAP
0FE0
1FE0
3F00
3E00
3E00
3E00
3E00
3E00
7C00
FC00
F800
7C00
3E00
3E00
3E00
3E00
3E00
3E00
1FE0
0FE0
ENDCHAR
STARTCHAR bar
ENCODING 124
SWIDTH 20160 0
DWIDTH 21 0
BBX 4 19 0 -4
BITMAP
F0
F0
F0
F0
F0
F0
F0
F0
F0
F0
F0
F0
F0
F0
F0
F0
F0
F0
F0
ENDCHAR
STARTCHAR braceright
ENCODING 125
SWIDTH 20160 0
DWIDTH 21 0
BBX 11 20 0 -4
BITMAP
FC00
FF00
1F00
0F00
0F00
0F00
0F00
0F00
0F80
07E0
07E0
0F80
0F00
0F00
0F00
0F00
0F00
1F00
FF00
FC00
ENDCHAR
STARTCHAR asciitilde
ENCODING 126
SWIDTH 25920 0
DWIDTH 27 0
BBX 20 4 0 13
BITMAP
040040
3FE0F0
FFFFC0
603F00
ENDCHAR
STARTCHAR quotedblleft
ENCODING 8220
SWIDTH 13440 0
DWIDTH 14 0
BBX 12 5 0 11
BITMAP
0830
34C0
71E0
F9F0
34C0
ENDCHAR
STARTCHAR quotedblright
ENCODING 8221
SWIDTH 13440 0
DWIDTH 14 0
BBX 12 5 0 11
BITMAP
20C0
79F0
FCE0
30C0
E180
ENDCHAR
STARTCHAR quoteright
ENCODING 8217
SWIDTH 7680 0
DWIDTH 8 0
BBX 6 5 0 11
BITMAP
30
7C
B8
30
C0
ENDCHAR
ENDFONT
